<svg xmlns="http://www.w3.org/2000/svg" width="128" height="128" viewBox="-54 -54 128 128"><path fill="#5678A9" d="M30.08-33.063L6.594-9.573-6.965-23.13l23.492-23.488c1.26-1.26 2.995-1.657 5.22-1.196 2.222.457 4.254 1.628 6.088 3.515 1.89 1.838 3.052 3.856 3.476 6.054.44 2.198.03 3.926-1.23 5.183zM-27.918-20.23l6.6-8.12 65.315 65.32-8.623 6.088c-2.414 2.422-6.464 4.426-12.143 6.02-5.678 1.6-10.867 2.393-15.55 2.393h-28.13l-8.992 8.992c-2.128 2.124-4.687 3.193-7.686 3.193-2.995 0-5.558-1.07-7.686-3.193C-46.935 58.38-48 55.832-48 52.814c0-3.023 1.065-5.593 3.19-7.718l8.99-8.99V7.972c0-4.64.737-9.908 2.213-15.806 1.473-5.895 3.37-10.03 5.69-12.397zM24.72 8.554l23.484-23.492c1.218-1.257 2.93-1.667 5.154-1.232 2.224.436 4.248 1.597 6.09 3.48 1.882 1.837 3.044 3.855 3.482 6.054.432 2.202.02 3.93-1.23 5.183l-23.493 23.56L24.72 8.555zM68 52.655l-.003 3.667c0 .42-.147.778-.444 1.072-.295.294-.654.44-1.072.443l-8.65-.006-.01 8.638c0 .422-.148.78-.442 1.08s-.655.452-1.074.452l-3.666-.003c-.42 0-.775-.152-1.065-.45-.292-.3-.437-.66-.438-1.083l.007-8.638-8.652-.006c-.418 0-.783-.148-1.082-.442-.3-.296-.45-.652-.448-1.074l.003-3.665c-.002-.423.147-.78.448-1.075.302-.295.664-.444 1.084-.442l8.652.005.007-8.68c-.004-.422.143-.778.434-1.066.29-.292.646-.438 1.065-.438l3.667.003c.42 0 .777.146 1.073.437s.442.646.444 1.068l-.006 8.68 8.652.005c.418.003.778.15 1.073.446.298.295.444.65.445 1.072z"/></svg>